<svg xmlns="http://www.w3.org/2000/svg" width="200" height="202"><path class="elementor-shape-fill" d="M139.374 198.088c16.328 8.906 51.35-1.087 58.304-39.038 7.15-39.022-13.182-40.052-9.633-54.248 14.243-21.15 16.782-48.14 2.028-64.387-36.503-38.024-45.629 7.604-76.048-20.28C101.727 7.837 83.1-6.735 56.23 3.405 18.239 17.74 27.33 47.659 27.33 69.313c0 7.624-24.216 21.957-26.87 41.573-3.346 24.734 12.168 57.29 26.87 68.443 23.322 26.363 59.318 20.28 75.541 11.154 13.931-7.836 25.35 1.52 36.503 7.605z"/></svg>